<svg width="469.63" height="91.898" viewBox="0 0 469.63 91.898" xmlns="http://www.w3.org/2000/svg"><g id="svgGroup" stroke-linecap="round" fill-rule="evenodd" font-size="9pt" stroke="#fff" stroke-width="0.25mm" fill="#fff" style="stroke:#fff;stroke-width:0.25mm;fill:#fff"><path d="M 286.578 1.974 A 14.677 14.677 0 0 0 286.425 1.924 Q 282.989 0.837 278.978 1.424 A 30.067 30.067 0 0 0 277.993 1.407 Q 275.937 1.407 274.071 1.698 A 19.278 19.278 0 0 0 268.378 3.474 Q 263.878 5.724 260.278 9.524 Q 258.378 11.524 256.728 13.724 Q 255.078 15.924 252.778 17.624 A 9.724 9.724 0 0 0 252.575 17.794 A 7.809 7.809 0 0 0 249.978 22.024 Q 248.978 25.824 248.678 29.724 Q 248.378 33.624 247.978 37.424 A 64.678 64.678 0 0 0 247.687 43.559 A 65.612 65.612 0 0 0 247.728 45.874 Q 247.878 50.124 247.378 54.324 Q 246.578 60.524 247.028 66.524 A 23.593 23.593 0 0 0 247.845 71.15 A 26.837 26.837 0 0 0 250.978 78.124 Q 251.283 78.489 251.476 79.003 A 4.623 4.623 0 0 1 251.678 79.724 Q 252.278 82.324 254.078 84.274 Q 255.878 86.224 258.078 87.924 Q 260.278 89.724 263.278 89.524 L 263.279 89.523 A 21.621 21.621 0 0 0 268.628 88.674 Q 271.178 87.924 273.378 86.324 A 14.054 14.054 0 0 1 273.767 86.024 A 16.806 16.806 0 0 1 274.478 85.524 A 3.668 3.668 0 0 1 274.937 85.261 A 2.792 2.792 0 0 1 275.678 85.024 A 13.773 13.773 0 0 0 276.102 84.933 Q 281.492 83.696 281.492 78.921 A 8.961 8.961 0 0 0 281.478 78.424 Q 281.423 77.929 281.519 77.418 A 4.169 4.169 0 0 1 281.778 76.574 Q 282.178 75.624 283.178 75.224 Q 284.178 74.824 284.878 75.474 A 15.873 15.873 0 0 0 285.272 75.827 A 13.551 13.551 0 0 0 286.278 76.624 Q 286.978 77.124 287.878 77.624 A 9.378 9.378 0 0 0 288.455 77.9 Q 290.478 78.786 292.578 78.524 A 8.58 8.58 0 0 0 292.875 78.481 A 6.958 6.958 0 0 0 296.628 76.674 A 5.218 5.218 0 0 0 297.788 75.107 A 5.252 5.252 0 0 0 298.278 72.824 Q 298.378 69.024 299.978 65.624 Q 301.578 62.224 302.578 58.724 Q 303.078 57.124 303.828 55.524 A 10.1 10.1 0 0 0 304.125 54.824 A 8.508 8.508 0 0 0 304.678 52.324 A 8.373 8.373 0 0 0 304.773 51.08 A 7.471 7.471 0 0 0 304.328 48.524 A 5.274 5.274 0 0 0 304.141 48.073 Q 303.732 47.202 302.988 46.43 A 8.897 8.897 0 0 0 301.678 45.324 A 18.591 18.591 0 0 0 301.129 44.976 A 15.76 15.76 0 0 0 294.278 42.674 A 41.192 41.192 0 0 0 290.594 42.51 A 44.437 44.437 0 0 0 286.278 42.724 Q 284.978 42.824 283.678 43.224 A 2.315 2.315 0 0 0 282.332 44.267 A 3.279 3.279 0 0 0 281.978 45.124 Q 281.906 45.411 281.653 45.518 A 0.807 0.807 0 0 1 281.428 45.574 A 9.937 9.937 0 0 0 281.084 45.618 A 11.884 11.884 0 0 0 280.478 45.724 Q 278.222 46.217 277.059 46.934 A 3.37 3.37 0 0 0 276.278 47.574 A 2.442 2.442 0 0 0 275.867 48.254 Q 275.378 49.445 275.678 51.624 Q 275.878 53.424 275.978 55.224 A 9.233 9.233 0 0 1 275.992 55.736 A 8.915 8.915 0 0 1 275.478 58.724 Q 274.378 61.824 271.078 62.524 A 8.39 8.39 0 0 1 270.745 62.583 Q 268.68 62.91 266.973 62.093 A 6.904 6.904 0 0 1 265.078 60.724 A 10.138 10.138 0 0 1 264.217 59.852 A 7.912 7.912 0 0 1 262.478 56.624 Q 261.616 53.174 258.532 51.842 A 10.162 10.162 0 0 0 255.778 51.124 Q 254.278 50.924 253.278 50.074 A 3.126 3.126 0 0 1 253.142 49.951 Q 252.369 49.211 252.369 48.156 A 3.033 3.033 0 0 1 252.378 47.924 Q 252.478 45.524 252.678 43.074 Q 252.878 40.624 252.978 38.224 A 14.302 14.302 0 0 1 253.047 37.322 Q 253.19 36.008 253.574 34.929 A 6.825 6.825 0 0 1 255.778 31.774 A 13.439 13.439 0 0 1 256.285 31.393 Q 258.767 29.619 262.478 28.624 Q 265.578 27.724 268.728 27.074 Q 271.878 26.424 275.078 26.124 A 14.04 14.04 0 0 1 275.168 26.113 Q 277.695 25.838 278.678 26.674 A 2.233 2.233 0 0 1 279.281 27.52 Q 279.6 28.271 279.587 29.43 A 8.758 8.758 0 0 1 279.578 29.724 Q 279.578 31.424 279.478 33.074 Q 279.378 34.724 279.178 36.424 A 6.322 6.322 0 0 0 279.172 36.523 Q 279.13 37.348 279.324 37.923 A 1.909 1.909 0 0 0 279.728 38.624 A 1.83 1.83 0 0 0 279.838 38.733 Q 280.304 39.155 281.158 39.373 A 6.705 6.705 0 0 0 281.978 39.524 Q 284.278 39.824 286.628 40.224 Q 288.978 40.624 291.278 40.924 A 7.775 7.775 0 0 0 292.205 40.98 A 7.303 7.303 0 0 0 295.978 39.924 Q 298.978 38.224 301.628 36.174 Q 304.278 34.124 306.478 31.724 Q 307.278 30.924 308.228 30.124 Q 309.178 29.324 309.578 28.124 A 9.809 9.809 0 0 0 309.782 27.428 Q 310.045 26.39 310.045 25.39 A 7.438 7.438 0 0 0 309.928 24.074 A 10.264 10.264 0 0 0 309.793 23.438 A 10.975 10.975 0 0 0 308.478 20.324 Q 305.678 15.824 301.978 12.024 Q 298.278 8.224 293.378 5.224 A 33.399 33.399 0 0 0 292.965 4.965 A 30.035 30.035 0 0 0 286.578 1.974 Z M 370.578 1.974 A 14.677 14.677 0 0 0 370.425 1.924 Q 366.989 0.837 362.978 1.424 A 30.067 30.067 0 0 0 361.993 1.407 Q 359.937 1.407 358.071 1.698 A 19.278 19.278 0 0 0 352.378 3.474 Q 347.878 5.724 344.278 9.524 Q 342.378 11.524 340.728 13.724 Q 339.078 15.924 336.778 17.624 A 9.724 9.724 0 0 0 336.575 17.794 A 7.809 7.809 0 0 0 333.978 22.024 Q 332.978 25.824 332.678 29.724 Q 332.378 33.624 331.978 37.424 A 64.678 64.678 0 0 0 331.687 43.559 A 65.612 65.612 0 0 0 331.728 45.874 Q 331.878 50.124 331.378 54.324 Q 330.578 60.524 331.028 66.524 A 23.593 23.593 0 0 0 331.845 71.15 A 26.837 26.837 0 0 0 334.978 78.124 Q 335.283 78.489 335.476 79.003 A 4.623 4.623 0 0 1 335.678 79.724 Q 336.278 82.324 338.078 84.274 Q 339.878 86.224 342.078 87.924 Q 344.278 89.724 347.278 89.524 L 347.279 89.523 A 21.621 21.621 0 0 0 352.628 88.674 Q 355.178 87.924 357.378 86.324 A 14.054 14.054 0 0 1 357.767 86.024 A 16.806 16.806 0 0 1 358.478 85.524 A 3.668 3.668 0 0 1 358.937 85.261 A 2.792 2.792 0 0 1 359.678 85.024 A 13.773 13.773 0 0 0 360.102 84.933 Q 365.492 83.696 365.492 78.921 A 8.961 8.961 0 0 0 365.478 78.424 Q 365.423 77.929 365.519 77.418 A 4.169 4.169 0 0 1 365.778 76.574 Q 366.178 75.624 367.178 75.224 Q 368.178 74.824 368.878 75.474 A 15.873 15.873 0 0 0 369.272 75.827 A 13.551 13.551 0 0 0 370.278 76.624 Q 370.978 77.124 371.878 77.624 A 9.378 9.378 0 0 0 372.455 77.9 Q 374.478 78.786 376.578 78.524 A 8.58 8.58 0 0 0 376.875 78.481 A 6.958 6.958 0 0 0 380.628 76.674 A 5.218 5.218 0 0 0 381.788 75.107 A 5.252 5.252 0 0 0 382.278 72.824 Q 382.378 69.024 383.978 65.624 Q 385.578 62.224 386.578 58.724 Q 387.078 57.124 387.828 55.524 A 10.1 10.1 0 0 0 388.125 54.824 A 8.508 8.508 0 0 0 388.678 52.324 A 8.373 8.373 0 0 0 388.773 51.08 A 7.471 7.471 0 0 0 388.328 48.524 A 5.274 5.274 0 0 0 388.141 48.073 Q 387.732 47.202 386.988 46.43 A 8.897 8.897 0 0 0 385.678 45.324 A 18.591 18.591 0 0 0 385.129 44.976 A 15.76 15.76 0 0 0 378.278 42.674 A 41.192 41.192 0 0 0 374.594 42.51 A 44.437 44.437 0 0 0 370.278 42.724 Q 368.978 42.824 367.678 43.224 A 2.315 2.315 0 0 0 366.332 44.267 A 3.279 3.279 0 0 0 365.978 45.124 Q 365.906 45.411 365.653 45.518 A 0.807 0.807 0 0 1 365.428 45.574 A 9.937 9.937 0 0 0 365.084 45.618 A 11.884 11.884 0 0 0 364.478 45.724 Q 362.222 46.217 361.059 46.934 A 3.37 3.37 0 0 0 360.278 47.574 A 2.442 2.442 0 0 0 359.867 48.254 Q 359.378 49.445 359.678 51.624 Q 359.878 53.424 359.978 55.224 A 9.233 9.233 0 0 1 359.992 55.736 A 8.915 8.915 0 0 1 359.478 58.724 Q 358.378 61.824 355.078 62.524 A 8.39 8.39 0 0 1 354.745 62.583 Q 352.68 62.91 350.973 62.093 A 6.904 6.904 0 0 1 349.078 60.724 A 10.138 10.138 0 0 1 348.217 59.852 A 7.912 7.912 0 0 1 346.478 56.624 Q 345.616 53.174 342.532 51.842 A 10.162 10.162 0 0 0 339.778 51.124 Q 338.278 50.924 337.278 50.074 A 3.126 3.126 0 0 1 337.142 49.951 Q 336.369 49.211 336.369 48.156 A 3.033 3.033 0 0 1 336.378 47.924 Q 336.478 45.524 336.678 43.074 Q 336.878 40.624 336.978 38.224 A 14.302 14.302 0 0 1 337.047 37.322 Q 337.19 36.008 337.574 34.929 A 6.825 6.825 0 0 1 339.778 31.774 A 13.439 13.439 0 0 1 340.285 31.393 Q 342.767 29.619 346.478 28.624 Q 349.578 27.724 352.728 27.074 Q 355.878 26.424 359.078 26.124 A 14.04 14.04 0 0 1 359.168 26.113 Q 361.695 25.838 362.678 26.674 A 2.233 2.233 0 0 1 363.281 27.52 Q 363.6 28.271 363.587 29.43 A 8.758 8.758 0 0 1 363.578 29.724 Q 363.578 31.424 363.478 33.074 Q 363.378 34.724 363.178 36.424 A 6.322 6.322 0 0 0 363.172 36.523 Q 363.13 37.348 363.324 37.923 A 1.909 1.909 0 0 0 363.728 38.624 A 1.83 1.83 0 0 0 363.838 38.733 Q 364.304 39.155 365.158 39.373 A 6.705 6.705 0 0 0 365.978 39.524 Q 368.278 39.824 370.628 40.224 Q 372.978 40.624 375.278 40.924 A 7.775 7.775 0 0 0 376.205 40.98 A 7.303 7.303 0 0 0 379.978 39.924 Q 382.978 38.224 385.628 36.174 Q 388.278 34.124 390.478 31.724 Q 391.278 30.924 392.228 30.124 Q 393.178 29.324 393.578 28.124 A 9.809 9.809 0 0 0 393.782 27.428 Q 394.045 26.39 394.045 25.39 A 7.438 7.438 0 0 0 393.928 24.074 A 10.264 10.264 0 0 0 393.793 23.438 A 10.975 10.975 0 0 0 392.478 20.324 Q 389.678 15.824 385.978 12.024 Q 382.278 8.224 377.378 5.224 A 33.399 33.399 0 0 0 376.965 4.965 A 30.035 30.035 0 0 0 370.578 1.974 Z M 182.266 55.387 A 41.465 41.465 0 0 0 182.278 55.924 A 66.366 66.366 0 0 1 181.979 59.81 A 83.689 83.689 0 0 1 181.228 65.174 Q 180.378 70.124 179.878 75.124 Q 179.578 77.524 179.178 79.924 L 178.378 84.724 Q 178.278 85.424 177.828 85.974 Q 177.378 86.524 176.578 86.324 A 1.649 1.649 0 0 1 176.434 86.262 Q 175.884 85.993 176.025 85.474 A 1.143 1.143 0 0 1 176.078 85.324 A 38.028 38.028 0 0 1 176.213 85.012 Q 176.425 84.53 176.578 84.224 Q 178.678 78.624 178.978 72.724 Q 179.278 66.824 179.978 61.024 Q 180.178 59.024 180.228 56.974 Q 180.278 54.924 180.278 52.924 A 4.203 4.203 0 0 1 180.369 52.018 Q 180.705 50.495 182.278 50.024 Q 185.778 49.124 189.328 48.274 Q 192.878 47.424 196.478 46.624 Q 196.759 46.567 197.056 46.574 A 3.037 3.037 0 0 1 197.528 46.624 Q 198.078 46.724 198.578 46.824 A 0.752 0.752 0 0 1 198.782 46.93 Q 198.88 47.001 198.971 47.108 A 1.77 1.77 0 0 1 199.128 47.324 Q 199.378 47.724 198.978 47.824 A 4.944 4.944 0 0 0 198.713 47.92 Q 198.177 48.133 197.901 48.408 A 0.961 0.961 0 0 0 197.628 48.874 A 2.223 2.223 0 0 0 197.572 49.375 Q 197.572 49.564 197.602 49.76 A 3.125 3.125 0 0 0 197.728 50.274 A 5.252 5.252 0 0 1 197.86 50.737 A 4.32 4.32 0 0 1 197.978 51.724 Q 197.978 58.724 198.628 65.624 Q 199.278 72.524 199.978 79.524 Q 200.178 82.224 201.128 83.024 Q 201.855 83.636 203.726 83.78 A 16.443 16.443 0 0 0 204.978 83.824 Q 207.878 83.724 210.678 82.924 Q 213.478 82.124 216.378 81.724 A 2.056 2.056 0 0 0 216.691 81.698 A 2.756 2.756 0 0 0 217.028 81.624 A 2.796 2.796 0 0 1 217.335 81.553 A 2.083 2.083 0 0 1 217.678 81.524 Q 220.278 81.024 221.278 80.574 A 2.186 2.186 0 0 0 221.482 80.469 Q 221.985 80.176 222.17 79.675 A 1.868 1.868 0 0 0 222.278 79.024 A 3.574 3.574 0 0 0 222.278 78.986 Q 222.266 77.88 221.578 75.324 Q 219.678 66.924 217.128 58.674 Q 214.578 50.424 212.278 42.224 Q 210.478 36.024 208.728 29.924 Q 206.978 23.824 204.978 17.824 Q 204.536 16.423 205.071 15.811 A 1.232 1.232 0 0 1 205.578 15.474 A 53.424 53.424 0 0 0 205.91 15.348 Q 206.398 15.161 206.833 14.983 A 30.792 30.792 0 0 0 207.678 14.624 A 4.971 4.971 0 0 1 207.736 14.591 Q 209.092 13.84 209.728 14.624 A 5.852 5.852 0 0 1 210.216 15.325 A 7.063 7.063 0 0 1 210.778 16.524 Q 214.278 25.324 216.578 34.424 Q 218.878 43.524 220.178 52.824 Q 221.178 59.624 222.528 66.424 Q 223.878 73.224 225.378 79.924 A 8.97 8.97 0 0 1 225.413 80.067 Q 225.693 81.271 225.544 82.176 A 2.994 2.994 0 0 1 225.228 83.124 A 2.811 2.811 0 0 1 224.432 84.021 Q 223.701 84.574 222.478 84.924 Q 217.878 86.224 213.378 87.624 Q 208.878 89.024 204.178 89.824 A 9.914 9.914 0 0 1 203.989 89.852 Q 202.24 90.093 201.528 89.524 A 1.865 1.865 0 0 1 201.259 89.256 Q 200.703 88.586 200.378 87.124 Q 198.578 79.424 197.678 71.474 Q 196.778 63.524 195.078 55.724 A 14.93 14.93 0 0 0 194.835 54.8 Q 194.494 53.659 194.05 52.978 A 2.748 2.748 0 0 0 193.478 52.324 A 2.168 2.168 0 0 0 193.182 52.125 Q 192.13 51.537 189.878 51.624 L 187.928 51.624 Q 186.978 51.624 186.078 51.524 Q 183.847 51.125 183.044 51.457 A 0.81 0.81 0 0 0 182.728 51.674 A 0.928 0.928 0 0 0 182.596 51.892 Q 182.227 52.711 182.266 55.387 Z M 185.239 54.619 A 7.285 7.285 0 0 0 185.228 54.674 A 2.842 2.842 0 0 0 185.194 54.883 Q 185.178 55.011 185.178 55.124 A 115.244 115.244 0 0 1 185.273 59.792 A 114.385 114.385 0 0 1 184.828 69.874 Q 184.178 77.224 183.978 84.524 A 8.06 8.06 0 0 1 183.866 85.513 Q 183.67 86.591 183.178 87.224 A 1.766 1.766 0 0 1 182.479 87.748 Q 181.71 88.087 180.378 88.024 A 17.77 17.77 0 0 0 179.081 87.976 Q 176.265 87.976 173.402 88.866 A 22.327 22.327 0 0 0 172.078 89.324 Q 169.851 90.214 167.664 90.214 A 10.819 10.819 0 0 1 165.178 89.924 Q 161.778 89.124 158.278 88.624 A 3.115 3.115 0 0 1 157.335 88.353 A 2.427 2.427 0 0 1 156.178 87.174 Q 155.578 85.924 155.578 84.424 A 63.127 63.127 0 0 1 155.564 83.081 A 63.564 63.564 0 0 1 156.078 75.024 Q 156.678 70.324 156.778 65.624 Q 156.878 57.924 158.728 50.624 Q 160.578 43.324 161.678 35.924 Q 161.978 33.924 162.078 31.774 Q 162.178 29.624 162.278 27.524 A 3.815 3.815 0 0 1 162.449 26.342 Q 162.823 25.189 164.02 24.661 A 4.113 4.113 0 0 1 164.378 24.524 Q 167.378 23.324 170.178 21.774 Q 172.978 20.224 176.078 19.424 A 3.391 3.391 0 0 0 176.667 19.222 Q 176.976 19.081 177.19 18.887 A 1.427 1.427 0 0 0 177.578 18.324 A 3.561 3.561 0 0 0 177.789 17.36 Q 177.821 16.975 177.781 16.555 A 5.316 5.316 0 0 0 177.778 16.524 A 35.553 35.553 0 0 1 177.745 14.979 A 37.99 37.99 0 0 1 177.878 11.824 Q 178.078 9.424 178.478 7.124 A 3.605 3.605 0 0 1 178.825 5.98 Q 179.322 5.012 180.435 4.625 A 3.995 3.995 0 0 1 180.778 4.524 Q 184.878 3.324 189.028 2.524 Q 193.178 1.724 197.478 1.024 Q 200.078 0.524 200.378 3.324 Q 200.578 4.924 200.778 6.624 L 201.178 10.024 A 5.786 5.786 0 0 0 201.463 11.135 Q 202.368 13.538 205.278 12.624 Q 206.578 12.124 207.828 11.574 Q 209.078 11.024 210.278 10.524 Q 211.678 9.824 212.328 10.174 Q 212.859 10.459 213.156 11.511 A 6.765 6.765 0 0 1 213.278 12.024 Q 216.478 25.424 219.378 38.974 Q 222.278 52.524 224.178 66.224 Q 224.678 69.924 225.628 73.624 Q 226.578 77.324 227.478 81.024 Q 228.342 84.673 224.78 86.016 A 8.23 8.23 0 0 1 224.478 86.124 Q 219.078 87.924 213.578 89.424 Q 208.078 90.924 202.478 91.824 Q 200.807 92.114 199.241 91.27 A 7.055 7.055 0 0 1 198.078 90.474 A 7.378 7.378 0 0 1 196.77 89.084 A 5.327 5.327 0 0 1 195.778 86.424 Q 195.378 81.124 194.378 75.874 Q 193.378 70.624 192.578 65.324 Q 192.278 63.224 191.928 61.174 Q 191.578 59.124 191.478 57.024 Q 191.478 56.684 191.409 56.228 A 9.989 9.989 0 0 0 191.328 55.774 Q 191.187 55.068 190.648 55.468 A 1.587 1.587 0 0 0 190.578 55.524 A 5.012 5.012 0 0 1 190.096 55.846 Q 189.212 56.361 188.578 56.124 A 3.793 3.793 0 0 1 187.742 55.678 Q 187.402 55.441 187.072 55.117 A 6.295 6.295 0 0 1 187.028 55.074 A 4.569 4.569 0 0 0 186.137 54.372 A 3.874 3.874 0 0 0 185.378 54.024 Q 185.289 54.381 185.239 54.619 Z M 468.747 31.821 A 21.106 21.106 0 0 0 468.678 32.024 A 52.556 52.556 0 0 1 467.427 33.773 Q 466.839 34.564 466.151 35.439 A 113.104 113.104 0 0 1 464.678 37.274 A 65.919 65.919 0 0 1 460.872 41.539 A 57.704 57.704 0 0 1 459.578 42.824 A 7.016 7.016 0 0 1 458.318 43.836 A 5.128 5.128 0 0 1 456.328 44.574 Q 454.578 44.824 452.278 44.724 Q 448.878 44.524 445.428 43.874 A 25.324 25.324 0 0 0 440.73 43.429 A 24.476 24.476 0 0 0 438.578 43.524 Q 434.878 43.724 432.778 45.124 A 4.695 4.695 0 0 0 431.306 46.639 Q 430.766 47.552 430.69 48.731 A 6.112 6.112 0 0 0 430.678 49.124 Q 430.678 52.024 430.578 54.974 A 16.572 16.572 0 0 0 430.569 55.535 A 16.894 16.894 0 0 0 431.428 60.824 A 12.402 12.402 0 0 0 432.725 63.542 Q 433.691 65.083 435.178 66.624 Q 436.378 67.924 437.778 69.274 Q 439.178 70.624 441.178 70.824 Q 442.028 70.866 442.725 70.683 A 3.473 3.473 0 0 0 444.328 69.774 A 11.032 11.032 0 0 0 445.697 68.121 A 9.612 9.612 0 0 0 446.178 67.324 Q 448.178 64.024 450.478 60.874 A 27.312 27.312 0 0 1 454.743 56.287 A 31.847 31.847 0 0 1 456.178 55.124 Q 457.478 54.124 458.978 53.424 Q 460.478 52.724 462.478 52.524 A 13.006 13.006 0 0 1 463.999 52.435 A 13.626 13.626 0 0 1 465.928 52.574 A 3.702 3.702 0 0 1 468.501 54.159 A 5.012 5.012 0 0 1 468.678 54.424 A 6.96 6.96 0 0 1 469.22 55.384 Q 469.662 56.349 469.628 57.224 A 1.418 1.418 0 0 1 469.109 58.25 Q 468.615 58.69 467.654 58.991 A 8.554 8.554 0 0 1 467.178 59.124 A 6.532 6.532 0 0 0 466.309 59.388 Q 465.309 59.777 464.878 60.424 A 3.504 3.504 0 0 0 464.356 61.74 A 4.811 4.811 0 0 0 464.278 62.624 Q 464.378 66.224 464.378 69.924 Q 464.378 73.624 464.178 77.224 Q 464.078 79.924 463.378 82.374 Q 462.678 84.824 460.878 86.774 Q 459.078 88.724 455.378 90.024 A 25.221 25.221 0 0 1 447.052 91.4 A 28.58 28.58 0 0 1 444.978 91.324 A 32.86 32.86 0 0 1 436.536 89.617 A 30.258 30.258 0 0 1 434.728 88.924 A 23.868 23.868 0 0 1 430.692 86.774 A 18.124 18.124 0 0 1 427.128 83.674 A 11.311 11.311 0 0 1 425.284 80.856 Q 424.465 79.032 424.465 77.032 A 9.931 9.931 0 0 1 424.478 76.524 Q 424.545 75.72 424.164 74.939 A 4.327 4.327 0 0 0 423.678 74.174 Q 422.778 73.024 421.978 72.024 A 36.109 36.109 0 0 1 419.204 66.825 A 28.845 28.845 0 0 1 417.778 62.674 Q 416.578 58.024 416.378 53.424 Q 416.178 48.824 416.178 44.224 Q 416.078 39.124 415.878 34.024 Q 415.678 28.924 415.678 23.924 Q 415.678 20.924 416.378 18.124 Q 417.078 15.324 417.878 12.524 Q 418.678 9.724 418.778 6.824 A 2.769 2.769 0 0 1 420.174 4.637 Q 420.644 4.35 421.271 4.156 A 6.548 6.548 0 0 1 421.378 4.124 Q 423.778 3.424 426.178 3.024 A 50.925 50.925 0 0 1 434.07 2.409 A 52.892 52.892 0 0 1 442.978 3.174 Q 451.478 4.624 459.878 7.024 A 12.346 12.346 0 0 1 461.945 7.796 Q 463.076 8.347 463.899 9.096 A 6.625 6.625 0 0 1 464.628 9.874 Q 466.178 11.824 466.578 14.224 Q 467.078 17.024 467.928 19.774 Q 468.778 22.524 469.228 25.324 A 14.078 14.078 0 0 1 469.404 27.561 Q 469.404 29.337 468.978 31.224 Q 468.896 31.388 468.747 31.821 Z M 162.784 85.332 A 35.633 35.633 0 0 0 162.678 84.024 Q 162.678 77.024 163.678 70.174 Q 164.678 63.324 166.878 56.624 Q 169.578 48.024 172.628 39.474 Q 175.678 30.924 178.978 22.424 A 6.423 6.423 0 0 1 179.194 21.926 Q 179.695 20.892 180.496 20.251 A 4.688 4.688 0 0 1 182.578 19.324 Q 186.978 18.424 191.378 17.474 Q 195.778 16.524 199.778 14.424 A 4.973 4.973 0 0 1 199.894 14.372 Q 200.573 14.085 200.988 14.162 A 0.692 0.692 0 0 1 201.328 14.324 Q 201.637 14.599 201.923 15.11 A 6.3 6.3 0 0 1 202.178 15.624 Q 203.878 19.124 205.078 22.874 Q 206.278 26.624 207.278 30.424 Q 209.778 40.124 212.828 49.674 Q 215.878 59.224 218.378 68.924 A 57.897 57.897 0 0 1 218.501 69.401 A 63.453 63.453 0 0 1 219.278 72.874 Q 219.678 74.924 220.078 76.924 A 4.351 4.351 0 0 1 220.098 76.999 Q 220.54 78.741 219.111 79.322 A 3.574 3.574 0 0 1 218.378 79.524 Q 215.878 80.024 213.378 80.624 Q 210.878 81.224 208.278 81.824 Q 205.485 82.481 204.784 80.169 A 5.545 5.545 0 0 1 204.578 79.024 Q 204.178 73.724 203.628 68.374 Q 203.078 63.024 202.578 57.724 Q 202.378 55.224 202.128 52.774 Q 201.878 50.324 201.078 47.824 Q 200.344 45.162 197.926 45.28 A 4.825 4.825 0 0 0 197.478 45.324 A 35.042 35.042 0 0 1 196.972 45.37 A 40.226 40.226 0 0 1 195.378 45.474 A 9.567 9.567 0 0 0 195.361 45.474 A 8.641 8.641 0 0 0 193.278 45.824 Q 190.878 46.524 188.528 47.074 Q 186.178 47.624 183.778 48.024 Q 180.578 48.624 179.578 49.824 Q 178.578 51.024 178.578 54.224 A 69.59 69.59 0 0 1 178.622 56.707 A 68.175 68.175 0 0 1 178.078 65.324 Q 177.378 70.824 176.878 76.424 Q 176.378 80.624 174.578 84.324 A 6.536 6.536 0 0 1 172.353 87.106 A 8.377 8.377 0 0 1 170.128 88.224 A 10.302 10.302 0 0 1 169.118 88.511 Q 168.166 88.728 167.264 88.728 A 7.026 7.026 0 0 1 164.178 88.024 A 4.313 4.313 0 0 1 164.115 87.989 Q 163.747 87.783 163.484 87.539 A 1.924 1.924 0 0 1 162.828 86.174 A 43.623 43.623 0 0 0 162.784 85.332 Z M 6.378 10.224 Q 7.678 7.924 9.328 5.974 Q 10.978 4.024 11.978 1.624 A 4.307 4.307 0 0 1 12.268 1.007 Q 12.445 0.702 12.653 0.491 A 1.562 1.562 0 0 1 13.328 0.074 A 1.798 1.798 0 0 1 13.666 0.01 Q 14.442 -0.063 15.683 0.388 A 10.681 10.681 0 0 1 15.778 0.424 Q 21.878 2.924 27.978 5.324 Q 34.078 7.724 40.078 10.624 Q 41.678 11.324 43.228 12.174 A 6.428 6.428 0 0 1 45.314 14.02 A 8 8 0 0 1 45.778 14.724 A 4.677 4.677 0 0 0 46.959 16.107 A 5.481 5.481 0 0 0 47.178 16.274 Q 48.078 16.924 48.778 17.724 A 24.291 24.291 0 0 1 52.569 22.763 A 21.817 21.817 0 0 1 53.628 24.924 Q 55.278 28.824 56.378 32.924 Q 56.965 35.271 54.682 36.183 A 5.191 5.191 0 0 1 54.578 36.224 Q 53.478 36.624 52.328 36.974 Q 51.178 37.324 49.978 37.324 Q 47.678 37.424 47.678 39.724 L 47.878 42.724 Q 47.978 44.224 48.078 45.824 Q 48.278 50.824 48.528 55.924 Q 48.778 61.024 49.078 66.124 Q 49.278 70.824 49.628 75.474 Q 49.978 80.124 50.678 84.824 A 1.634 1.634 0 0 1 50.735 85.053 Q 50.778 85.295 50.778 85.624 A 18.941 18.941 0 0 1 50.812 86.106 Q 50.901 87.645 50.646 88.226 A 0.715 0.715 0 0 1 50.478 88.474 A 0.818 0.818 0 0 1 50.204 88.624 Q 49.561 88.853 47.87 88.757 A 24.661 24.661 0 0 1 47.378 88.724 Q 44.578 88.424 41.778 87.474 Q 38.978 86.524 36.178 85.824 A 22.579 22.579 0 0 0 35.563 85.686 Q 34.194 85.4 33.772 85.532 A 0.406 0.406 0 0 0 33.678 85.574 Q 33.327 85.793 33.592 87.358 A 15.828 15.828 0 0 0 33.678 87.824 Q 33.778 88.324 33.828 88.874 A 12.112 12.112 0 0 1 33.874 89.638 A 10.431 10.431 0 0 1 33.878 89.924 A 2.501 2.501 0 0 1 33.894 90.076 Q 33.986 91.375 32.457 91.137 A 3.951 3.951 0 0 1 32.378 91.124 Q 28.678 90.224 24.978 89.074 A 17.181 17.181 0 0 1 18.466 85.297 A 19.864 19.864 0 0 1 18.278 85.124 A 14.872 14.872 0 0 1 15.634 82.202 A 12.771 12.771 0 0 1 14.278 79.624 A 16.418 16.418 0 0 1 13.17 73.645 A 17.731 17.731 0 0 1 13.178 73.124 Q 13.278 67.924 13.628 62.824 Q 13.978 57.724 14.278 52.524 Q 14.478 48.624 14.428 44.724 Q 14.378 40.824 14.578 36.824 A 17.979 17.979 0 0 1 14.925 34.23 A 16.22 16.22 0 0 1 15.028 33.774 Q 15.378 32.324 15.878 30.924 Q 16.378 29.624 15.928 29.274 A 1.091 1.091 0 0 0 15.602 29.105 Q 15.151 28.953 14.378 29.024 A 42.485 42.485 0 0 1 11.642 29.112 A 40.494 40.494 0 0 1 8.278 28.974 Q 5.278 28.724 2.178 28.324 Q -0.562 27.834 0.145 25.717 A 3.762 3.762 0 0 1 0.178 25.624 Q 1.478 22.024 2.628 18.374 Q 3.778 14.724 5.678 11.324 A 8.403 8.403 0 0 1 5.928 10.968 A 7.027 7.027 0 0 1 6.078 10.774 Q 6.278 10.524 6.378 10.224 Z M 84.378 10.224 Q 85.678 7.924 87.328 5.974 Q 88.978 4.024 89.978 1.624 A 4.307 4.307 0 0 1 90.268 1.007 Q 90.445 0.702 90.653 0.491 A 1.562 1.562 0 0 1 91.328 0.074 A 1.798 1.798 0 0 1 91.666 0.01 Q 92.442 -0.063 93.683 0.388 A 10.681 10.681 0 0 1 93.778 0.424 Q 99.878 2.924 105.978 5.324 Q 112.078 7.724 118.078 10.624 Q 119.678 11.324 121.228 12.174 A 6.428 6.428 0 0 1 123.314 14.02 A 8 8 0 0 1 123.778 14.724 A 4.677 4.677 0 0 0 124.959 16.107 A 5.481 5.481 0 0 0 125.178 16.274 Q 126.078 16.924 126.778 17.724 A 24.291 24.291 0 0 1 130.569 22.763 A 21.817 21.817 0 0 1 131.628 24.924 Q 133.278 28.824 134.378 32.924 Q 134.965 35.271 132.682 36.183 A 5.191 5.191 0 0 1 132.578 36.224 Q 131.478 36.624 130.328 36.974 Q 129.178 37.324 127.978 37.324 Q 125.678 37.424 125.678 39.724 L 125.878 42.724 Q 125.978 44.224 126.078 45.824 Q 126.278 50.824 126.528 55.924 Q 126.778 61.024 127.078 66.124 Q 127.278 70.824 127.628 75.474 Q 127.978 80.124 128.678 84.824 A 1.634 1.634 0 0 1 128.735 85.053 Q 128.778 85.295 128.778 85.624 A 18.941 18.941 0 0 1 128.812 86.106 Q 128.901 87.645 128.646 88.226 A 0.715 0.715 0 0 1 128.478 88.474 A 0.818 0.818 0 0 1 128.204 88.624 Q 127.561 88.853 125.87 88.757 A 24.661 24.661 0 0 1 125.378 88.724 Q 122.578 88.424 119.778 87.474 Q 116.978 86.524 114.178 85.824 A 22.579 22.579 0 0 0 113.563 85.686 Q 112.194 85.4 111.772 85.532 A 0.406 0.406 0 0 0 111.678 85.574 Q 111.327 85.793 111.592 87.358 A 15.828 15.828 0 0 0 111.678 87.824 Q 111.778 88.324 111.828 88.874 A 12.112 12.112 0 0 1 111.874 89.638 A 10.431 10.431 0 0 1 111.878 89.924 A 2.501 2.501 0 0 1 111.894 90.076 Q 111.986 91.375 110.457 91.137 A 3.951 3.951 0 0 1 110.378 91.124 Q 106.678 90.224 102.978 89.074 A 17.181 17.181 0 0 1 96.466 85.297 A 19.864 19.864 0 0 1 96.278 85.124 A 14.872 14.872 0 0 1 93.634 82.202 A 12.771 12.771 0 0 1 92.278 79.624 A 16.418 16.418 0 0 1 91.17 73.645 A 17.731 17.731 0 0 1 91.178 73.124 Q 91.278 67.924 91.628 62.824 Q 91.978 57.724 92.278 52.524 Q 92.478 48.624 92.428 44.724 Q 92.378 40.824 92.578 36.824 A 17.979 17.979 0 0 1 92.925 34.23 A 16.22 16.22 0 0 1 93.028 33.774 Q 93.378 32.324 93.878 30.924 Q 94.378 29.624 93.928 29.274 A 1.091 1.091 0 0 0 93.602 29.105 Q 93.151 28.953 92.378 29.024 A 42.485 42.485 0 0 1 89.642 29.112 A 40.494 40.494 0 0 1 86.278 28.974 Q 83.278 28.724 80.178 28.324 Q 77.438 27.834 78.145 25.717 A 3.762 3.762 0 0 1 78.178 25.624 Q 79.478 22.024 80.628 18.374 Q 81.778 14.724 83.678 11.324 A 8.403 8.403 0 0 1 83.928 10.968 A 7.027 7.027 0 0 1 84.078 10.774 Q 84.278 10.524 84.378 10.224 Z M 457.078 66.324 Q 455.678 67.624 454.778 68.524 Q 453.878 69.424 452.878 70.124 A 19.366 19.366 0 0 1 449.872 72.013 Q 446.553 73.669 443.378 73.324 Q 439.87 72.942 436.361 69.827 A 25.821 25.821 0 0 1 434.178 67.624 Q 427.378 60.124 425.828 52.374 Q 424.278 44.624 425.678 36.924 A 1.882 1.882 0 0 1 425.858 36.38 Q 426.141 35.842 426.779 35.7 A 1.975 1.975 0 0 1 426.928 35.674 Q 427.978 35.524 429.478 35.624 Q 435.078 35.724 440.678 36.674 Q 446.278 37.624 451.778 38.924 Q 456.278 40.024 455.578 37.024 Q 454.878 33.624 454.128 30.274 Q 453.378 26.924 452.678 23.524 Q 452.278 21.724 450.978 20.424 A 10.444 10.444 0 0 0 449.668 19.324 Q 448.969 18.823 448.115 18.357 A 19.493 19.493 0 0 0 447.478 18.024 A 28.54 28.54 0 0 0 437.737 14.943 A 27.423 27.423 0 0 0 437.578 14.924 Q 432.478 14.324 427.378 14.024 A 33.046 33.046 0 0 0 426.405 13.975 Q 422.496 13.841 420.978 14.824 Q 419.342 15.882 418.539 18.886 A 15.259 15.259 0 0 0 418.478 19.124 Q 417.278 24.024 417.678 29.024 Q 418.078 34.024 419.378 39.124 Q 421.778 48.024 424.128 56.974 A 62.131 62.131 0 0 1 426.212 72.808 A 59.83 59.83 0 0 1 426.178 74.824 Q 426.078 78.924 428.428 82.624 A 10.062 10.062 0 0 0 430.844 85.188 Q 433.403 87.149 437.778 88.524 Q 440.778 89.424 444.078 89.474 Q 446.798 89.515 449.28 89.012 A 21.796 21.796 0 0 0 450.328 88.774 A 16.142 16.142 0 0 0 452.718 87.974 Q 454.043 87.405 455.09 86.628 A 10.127 10.127 0 0 0 455.228 86.524 A 6.652 6.652 0 0 0 456.5 85.26 A 5.008 5.008 0 0 0 457.478 82.924 Q 457.978 79.124 457.478 75.024 Q 457.061 71.607 457.061 67.843 A 69.913 69.913 0 0 1 457.078 66.324 Z M 10.378 6.824 Q 7.278 10.424 5.728 14.874 Q 4.178 19.324 2.378 23.624 A 18.992 18.992 0 0 0 2.109 24.333 Q 1.446 26.207 1.828 26.674 Q 2.278 27.224 5.178 27.524 A 44.349 44.349 0 0 0 9.905 27.781 A 41.774 41.774 0 0 0 10.678 27.774 Q 13.378 27.724 16.178 27.724 Q 18.795 27.724 17.654 29.884 A 5.539 5.539 0 0 1 17.578 30.024 Q 16.578 31.924 16.178 33.924 A 27.249 27.249 0 0 0 15.726 37.306 A 30.683 30.683 0 0 0 15.678 38.124 Q 15.578 41.324 15.428 44.574 Q 15.278 47.824 15.278 51.124 Q 15.278 56.624 14.978 62.024 Q 14.678 67.424 14.678 72.824 Q 14.678 76.824 16.178 80.324 A 10.89 10.89 0 0 0 19.02 84.187 A 15.68 15.68 0 0 0 21.778 86.124 Q 23.578 87.124 25.578 87.774 Q 27.578 88.424 29.478 89.124 A 15.371 15.371 0 0 0 30.068 89.308 Q 31.645 89.764 32.028 89.424 Q 32.478 89.024 32.078 86.924 Q 30.378 78.224 29.878 69.524 A 251.461 251.461 0 0 1 29.461 55.093 A 246.785 246.785 0 0 1 29.478 52.224 Q 29.578 48.424 29.828 44.674 Q 30.078 40.924 30.478 37.224 Q 30.678 34.624 30.878 32.124 Q 31.078 29.624 31.778 27.124 A 5.55 5.55 0 0 1 32.098 26.238 Q 32.333 25.734 32.657 25.348 A 3.492 3.492 0 0 1 32.678 25.324 Q 33.202 24.712 34.185 24.405 A 5.327 5.327 0 0 1 34.478 24.324 A 10.214 10.214 0 0 0 37.054 23.266 A 8.297 8.297 0 0 0 39.228 21.424 Q 40.978 19.324 42.178 16.824 A 16.319 16.319 0 0 0 42.523 16.055 Q 43.114 14.635 42.991 13.978 A 0.849 0.849 0 0 0 42.928 13.774 A 1.281 1.281 0 0 0 42.64 13.403 Q 42.091 12.882 40.661 12.224 A 24.282 24.282 0 0 0 39.978 11.924 A 19.96 19.96 0 0 0 39.357 11.627 A 23.041 23.041 0 0 0 39.128 11.524 Q 38.678 11.324 38.178 11.124 Q 32.978 8.524 27.628 6.424 Q 22.278 4.324 16.978 2.124 A 25.972 25.972 0 0 0 16.355 1.895 Q 14.936 1.395 14.461 1.457 A 0.52 0.52 0 0 0 14.378 1.474 A 0.798 0.798 0 0 0 14.131 1.613 Q 13.756 1.903 13.171 2.738 A 19.122 19.122 0 0 0 12.778 3.324 L 11.578 5.124 A 38.657 38.657 0 0 1 10.678 6.417 A 34.346 34.346 0 0 1 10.378 6.824 Z M 88.378 6.824 Q 85.278 10.424 83.728 14.874 Q 82.178 19.324 80.378 23.624 A 18.992 18.992 0 0 0 80.109 24.333 Q 79.446 26.207 79.828 26.674 Q 80.278 27.224 83.178 27.524 A 44.349 44.349 0 0 0 87.905 27.781 A 41.774 41.774 0 0 0 88.678 27.774 Q 91.378 27.724 94.178 27.724 Q 96.795 27.724 95.654 29.884 A 5.539 5.539 0 0 1 95.578 30.024 Q 94.578 31.924 94.178 33.924 A 27.249 27.249 0 0 0 93.726 37.306 A 30.683 30.683 0 0 0 93.678 38.124 Q 93.578 41.324 93.428 44.574 Q 93.278 47.824 93.278 51.124 Q 93.278 56.624 92.978 62.024 Q 92.678 67.424 92.678 72.824 Q 92.678 76.824 94.178 80.324 A 10.89 10.89 0 0 0 97.02 84.187 A 15.68 15.68 0 0 0 99.778 86.124 Q 101.578 87.124 103.578 87.774 Q 105.578 88.424 107.478 89.124 A 15.371 15.371 0 0 0 108.068 89.308 Q 109.645 89.764 110.028 89.424 Q 110.478 89.024 110.078 86.924 Q 108.378 78.224 107.878 69.524 A 251.461 251.461 0 0 1 107.461 55.093 A 246.785 246.785 0 0 1 107.478 52.224 Q 107.578 48.424 107.828 44.674 Q 108.078 40.924 108.478 37.224 Q 108.678 34.624 108.878 32.124 Q 109.078 29.624 109.778 27.124 A 5.55 5.55 0 0 1 110.098 26.238 Q 110.333 25.734 110.657 25.348 A 3.492 3.492 0 0 1 110.678 25.324 Q 111.202 24.712 112.185 24.405 A 5.327 5.327 0 0 1 112.478 24.324 A 10.214 10.214 0 0 0 115.054 23.266 A 8.297 8.297 0 0 0 117.228 21.424 Q 118.978 19.324 120.178 16.824 A 16.319 16.319 0 0 0 120.523 16.055 Q 121.114 14.635 120.991 13.978 A 0.849 0.849 0 0 0 120.928 13.774 A 1.281 1.281 0 0 0 120.64 13.403 Q 120.091 12.882 118.661 12.224 A 24.282 24.282 0 0 0 117.978 11.924 A 19.96 19.96 0 0 0 117.357 11.627 A 23.041 23.041 0 0 0 117.128 11.524 Q 116.678 11.324 116.178 11.124 Q 110.978 8.524 105.628 6.424 Q 100.278 4.324 94.978 2.124 A 25.972 25.972 0 0 0 94.355 1.895 Q 92.936 1.395 92.461 1.457 A 0.52 0.52 0 0 0 92.378 1.474 A 0.798 0.798 0 0 0 92.131 1.613 Q 91.756 1.903 91.171 2.738 A 19.122 19.122 0 0 0 90.778 3.324 L 89.578 5.124 A 38.657 38.657 0 0 1 88.678 6.417 A 34.346 34.346 0 0 1 88.378 6.824 Z M 277.078 51.724 L 277.078 53.724 L 277.178 53.724 Q 277.178 54.724 277.228 55.674 A 12.154 12.154 0 0 1 277.245 56.312 A 13.173 13.173 0 0 1 277.178 57.624 Q 276.978 60.624 274.878 62.274 Q 272.898 63.829 269.673 63.829 A 13.846 13.846 0 0 1 269.278 63.824 A 9.697 9.697 0 0 1 267.206 63.537 A 6.838 6.838 0 0 1 264.678 62.324 Q 262.878 60.924 262.078 58.724 A 13.293 13.293 0 0 0 260.821 56.102 A 10.7 10.7 0 0 0 259.228 54.124 A 7.341 7.341 0 0 0 257.049 52.685 Q 256.11 52.27 254.963 52.018 A 14.898 14.898 0 0 0 253.878 51.824 A 9.776 9.776 0 0 0 253.535 51.777 Q 252.584 51.665 252.263 51.851 A 0.439 0.439 0 0 0 252.228 51.874 A 0.675 0.675 0 0 0 252.015 52.138 Q 251.878 52.424 251.878 52.924 Q 251.878 58.324 251.228 63.674 Q 250.578 69.024 251.778 74.524 A 12.148 12.148 0 0 0 254.232 79.669 Q 256.759 82.703 261.478 83.824 Q 265.478 84.824 269.278 84.474 Q 273.078 84.124 276.778 83.024 A 5.837 5.837 0 0 0 278.037 82.588 Q 279.778 81.728 279.778 79.824 Q 279.978 77.224 281.278 75.024 A 3.92 3.92 0 0 1 281.785 74.327 Q 282.965 73.057 284.797 73.957 A 5.802 5.802 0 0 1 285.278 74.224 Q 286.078 74.724 286.878 75.374 Q 287.678 76.024 288.478 76.524 Q 289.278 76.924 290.078 77.374 A 1.813 1.813 0 0 0 290.981 77.612 Q 291.407 77.612 291.878 77.424 Q 292.504 77.111 292.777 76.681 A 1.335 1.335 0 0 0 292.978 76.124 Q 293.078 75.324 293.078 74.524 Q 293.178 72.124 293.078 69.724 Q 292.978 67.324 293.378 65.024 Q 293.878 60.924 292.728 57.424 Q 291.578 53.924 289.178 50.624 Q 288.478 49.524 287.478 48.624 A 6.878 6.878 0 0 0 285.671 47.461 A 8.213 8.213 0 0 0 285.078 47.224 Q 282.116 46.091 279.951 46.932 A 5.097 5.097 0 0 0 279.328 47.224 A 4.154 4.154 0 0 0 277.182 50.239 Q 277.074 50.81 277.074 51.465 A 8.262 8.262 0 0 0 277.078 51.724 Z M 361.078 51.724 L 361.078 53.724 L 361.178 53.724 Q 361.178 54.724 361.228 55.674 A 12.154 12.154 0 0 1 361.245 56.312 A 13.173 13.173 0 0 1 361.178 57.624 Q 360.978 60.624 358.878 62.274 Q 356.898 63.829 353.673 63.829 A 13.846 13.846 0 0 1 353.278 63.824 A 9.697 9.697 0 0 1 351.206 63.537 A 6.838 6.838 0 0 1 348.678 62.324 Q 346.878 60.924 346.078 58.724 A 13.293 13.293 0 0 0 344.821 56.102 A 10.7 10.7 0 0 0 343.228 54.124 A 7.341 7.341 0 0 0 341.049 52.685 Q 340.11 52.27 338.963 52.018 A 14.898 14.898 0 0 0 337.878 51.824 A 9.776 9.776 0 0 0 337.535 51.777 Q 336.584 51.665 336.263 51.851 A 0.439 0.439 0 0 0 336.228 51.874 A 0.675 0.675 0 0 0 336.015 52.138 Q 335.878 52.424 335.878 52.924 Q 335.878 58.324 335.228 63.674 Q 334.578 69.024 335.778 74.524 A 12.148 12.148 0 0 0 338.232 79.669 Q 340.759 82.703 345.478 83.824 Q 349.478 84.824 353.278 84.474 Q 357.078 84.124 360.778 83.024 A 5.837 5.837 0 0 0 362.037 82.588 Q 363.778 81.728 363.778 79.824 Q 363.978 77.224 365.278 75.024 A 3.92 3.92 0 0 1 365.785 74.327 Q 366.965 73.057 368.797 73.957 A 5.802 5.802 0 0 1 369.278 74.224 Q 370.078 74.724 370.878 75.374 Q 371.678 76.024 372.478 76.524 Q 373.278 76.924 374.078 77.374 A 1.813 1.813 0 0 0 374.981 77.612 Q 375.407 77.612 375.878 77.424 Q 376.504 77.111 376.777 76.681 A 1.335 1.335 0 0 0 376.978 76.124 Q 377.078 75.324 377.078 74.524 Q 377.178 72.124 377.078 69.724 Q 376.978 67.324 377.378 65.024 Q 377.878 60.924 376.728 57.424 Q 375.578 53.924 373.178 50.624 Q 372.478 49.524 371.478 48.624 A 6.878 6.878 0 0 0 369.671 47.461 A 8.213 8.213 0 0 0 369.078 47.224 Q 366.116 46.091 363.951 46.932 A 5.097 5.097 0 0 0 363.328 47.224 A 4.154 4.154 0 0 0 361.182 50.239 Q 361.074 50.81 361.074 51.465 A 8.262 8.262 0 0 0 361.078 51.724 Z M 34.378 26.424 Q 33.378 27.924 33.028 29.674 Q 32.678 31.424 32.478 33.224 Q 31.878 39.424 31.478 45.624 Q 31.078 51.824 30.978 58.024 Q 30.978 63.824 31.328 69.624 Q 31.678 75.424 32.678 81.224 A 8.953 8.953 0 0 0 32.951 82.121 A 7.242 7.242 0 0 0 33.178 82.674 A 1.602 1.602 0 0 0 33.584 83.203 Q 33.78 83.376 34.048 83.523 A 3.928 3.928 0 0 0 34.478 83.724 Q 37.478 84.724 40.528 85.724 Q 43.578 86.724 46.678 87.224 Q 48.478 87.424 48.978 87.024 A 0.742 0.742 0 0 0 49.187 86.737 Q 49.398 86.257 49.308 85.217 A 9.668 9.668 0 0 0 49.278 84.924 Q 48.678 80.524 48.328 76.124 Q 47.978 71.724 47.678 67.324 Q 47.278 60.224 46.928 53.224 Q 46.578 46.224 46.578 39.224 A 2.489 2.489 0 0 0 46.532 38.723 Q 46.318 37.682 45.093 37.921 A 2.974 2.974 0 0 0 45.078 37.924 A 48.709 48.709 0 0 0 43.465 38.312 A 53.544 53.544 0 0 0 43.228 38.374 A 49.882 49.882 0 0 1 41.604 38.773 A 45.329 45.329 0 0 1 41.378 38.824 A 16.639 16.639 0 0 1 40.254 39.038 Q 37.129 39.518 35.678 38.324 A 3.28 3.28 0 0 1 34.737 36.993 Q 34.211 35.696 34.321 33.58 A 16.777 16.777 0 0 1 34.378 32.824 Q 34.578 31.224 34.628 29.624 A 14.635 14.635 0 0 0 34.635 29.166 A 14.854 14.854 0 0 0 34.378 26.424 Z M 112.378 26.424 Q 111.378 27.924 111.028 29.674 Q 110.678 31.424 110.478 33.224 Q 109.878 39.424 109.478 45.624 Q 109.078 51.824 108.978 58.024 Q 108.978 63.824 109.328 69.624 Q 109.678 75.424 110.678 81.224 A 8.953 8.953 0 0 0 110.951 82.121 A 7.242 7.242 0 0 0 111.178 82.674 A 1.602 1.602 0 0 0 111.584 83.203 Q 111.78 83.376 112.048 83.523 A 3.928 3.928 0 0 0 112.478 83.724 Q 115.478 84.724 118.528 85.724 Q 121.578 86.724 124.678 87.224 Q 126.478 87.424 126.978 87.024 A 0.742 0.742 0 0 0 127.187 86.737 Q 127.398 86.257 127.308 85.217 A 9.668 9.668 0 0 0 127.278 84.924 Q 126.678 80.524 126.328 76.124 Q 125.978 71.724 125.678 67.324 Q 125.278 60.224 124.928 53.224 Q 124.578 46.224 124.578 39.224 A 2.489 2.489 0 0 0 124.532 38.723 Q 124.318 37.682 123.093 37.921 A 2.974 2.974 0 0 0 123.078 37.924 A 48.709 48.709 0 0 0 121.465 38.312 A 53.544 53.544 0 0 0 121.228 38.374 A 49.882 49.882 0 0 1 119.604 38.773 A 45.329 45.329 0 0 1 119.378 38.824 A 16.639 16.639 0 0 1 118.254 39.038 Q 115.129 39.518 113.678 38.324 A 3.28 3.28 0 0 1 112.737 36.993 Q 112.211 35.696 112.321 33.58 A 16.777 16.777 0 0 1 112.378 32.824 Q 112.578 31.224 112.628 29.624 A 14.635 14.635 0 0 0 112.635 29.166 A 14.854 14.854 0 0 0 112.378 26.424 Z M 295.778 38.724 A 46.925 46.925 0 0 0 299.817 36.018 A 38.548 38.548 0 0 0 301.978 34.274 Q 304.678 31.924 307.178 29.724 A 2.981 2.981 0 0 0 307.614 29.25 Q 308.049 28.65 307.978 27.974 Q 307.878 27.024 307.378 26.024 Q 305.078 20.624 301.328 16.124 Q 297.578 11.624 292.878 7.624 Q 290.378 5.524 287.228 4.174 Q 284.078 2.824 280.578 2.524 A 9.54 9.54 0 0 0 279.579 2.47 A 8.396 8.396 0 0 0 276.978 2.874 Q 275.278 3.424 273.678 4.124 A 36.373 36.373 0 0 1 268.12 5.978 A 40.14 40.14 0 0 1 267.728 6.074 Q 264.578 6.824 262.278 9.124 Q 260.778 10.524 259.478 12.074 Q 258.178 13.624 256.778 15.124 Q 261.478 13.124 266.378 11.674 Q 271.278 10.224 276.378 9.524 A 23.171 23.171 0 0 1 279.326 9.331 A 20.415 20.415 0 0 1 283.828 9.824 A 11.077 11.077 0 0 1 289.313 12.908 A 13.924 13.924 0 0 1 289.978 13.624 Q 297.378 21.924 296.478 32.224 Q 296.378 33.724 296.178 35.274 Q 295.978 36.824 295.778 38.724 Z M 379.778 38.724 A 46.925 46.925 0 0 0 383.817 36.018 A 38.548 38.548 0 0 0 385.978 34.274 Q 388.678 31.924 391.178 29.724 A 2.981 2.981 0 0 0 391.614 29.25 Q 392.049 28.65 391.978 27.974 Q 391.878 27.024 391.378 26.024 Q 389.078 20.624 385.328 16.124 Q 381.578 11.624 376.878 7.624 Q 374.378 5.524 371.228 4.174 Q 368.078 2.824 364.578 2.524 A 9.54 9.54 0 0 0 363.579 2.47 A 8.396 8.396 0 0 0 360.978 2.874 Q 359.278 3.424 357.678 4.124 A 36.373 36.373 0 0 1 352.12 5.978 A 40.14 40.14 0 0 1 351.728 6.074 Q 348.578 6.824 346.278 9.124 Q 344.778 10.524 343.478 12.074 Q 342.178 13.624 340.778 15.124 Q 345.478 13.124 350.378 11.674 Q 355.278 10.224 360.378 9.524 A 23.171 23.171 0 0 1 363.326 9.331 A 20.415 20.415 0 0 1 367.828 9.824 A 11.077 11.077 0 0 1 373.313 12.908 A 13.924 13.924 0 0 1 373.978 13.624 Q 381.378 21.924 380.478 32.224 Q 380.378 33.724 380.178 35.274 Q 379.978 36.824 379.778 38.724 Z M 160.878 85.324 L 160.878 84.224 A 85.315 85.315 0 0 1 160.874 83.353 A 83.232 83.232 0 0 1 162.928 64.924 Q 165.078 55.424 168.478 46.224 Q 170.578 40.524 172.628 34.774 Q 174.678 29.024 176.678 23.224 A 23.271 23.271 0 0 1 176.948 22.579 A 27.627 27.627 0 0 1 177.128 22.174 Q 177.378 21.624 176.878 21.224 A 1.118 1.118 0 0 0 176.728 21.067 Q 176.386 20.778 175.978 21.024 A 7.167 7.167 0 0 1 175.181 21.438 A 6.382 6.382 0 0 1 174.978 21.524 Q 172.678 22.524 170.378 23.574 Q 168.078 24.624 165.778 25.724 Q 164.778 26.124 164.528 26.824 A 5.579 5.579 0 0 0 164.341 27.48 Q 164.265 27.82 164.214 28.21 A 10.532 10.532 0 0 0 164.178 28.524 Q 163.978 31.624 163.728 34.824 Q 163.478 38.024 162.678 41.124 Q 159.778 51.424 158.928 61.824 Q 158.078 72.224 157.278 82.324 L 157.278 84.024 A 8.631 8.631 0 0 0 157.313 84.82 A 6.99 6.99 0 0 0 157.378 85.324 Q 157.578 87.324 159.378 87.124 Q 160.77 87.124 160.87 85.574 A 3.874 3.874 0 0 0 160.878 85.324 Z M 253.104 26.368 A 7.021 7.021 0 0 0 253.128 26.474 Q 253.378 27.524 253.378 28.624 Q 253.378 29.589 253.681 30.03 A 0.86 0.86 0 0 0 253.928 30.274 Q 254.406 30.578 255.526 30.089 A 7.483 7.483 0 0 0 255.878 29.924 Q 260.078 28.024 264.528 26.874 Q 268.978 25.724 273.578 25.124 A 17.66 17.66 0 0 1 275.336 25.035 A 16.402 16.402 0 0 1 277.478 25.174 A 6.341 6.341 0 0 1 280.393 26.358 A 7.973 7.973 0 0 1 280.978 26.824 A 7.24 7.24 0 0 1 282.104 28.142 A 5.554 5.554 0 0 1 282.878 29.924 Q 283.278 31.624 283.378 33.424 A 41.605 41.605 0 0 0 283.484 34.495 Q 283.606 35.568 283.756 36.277 A 7.48 7.48 0 0 0 283.878 36.774 Q 284.178 37.824 285.328 38.324 Q 286.284 38.739 288.105 39.155 A 41.434 41.434 0 0 0 288.878 39.324 Q 289.578 39.424 290.228 39.524 A 10.56 10.56 0 0 1 291.188 39.719 A 12.312 12.312 0 0 1 291.578 39.824 Q 294.378 40.224 294.378 37.624 A 4.884 4.884 0 0 0 294.289 36.726 Q 294.207 36.289 294.05 35.806 A 9.834 9.834 0 0 0 293.878 35.324 Q 293.078 33.224 292.528 31.074 Q 291.978 28.924 291.478 26.724 Q 290.778 23.624 289.828 20.624 Q 288.878 17.624 287.178 14.824 A 9.965 9.965 0 0 0 285.83 12.862 A 7.044 7.044 0 0 0 282.928 10.874 Q 280.278 9.924 276.978 10.424 Q 271.878 11.224 266.928 12.474 Q 261.978 13.724 257.478 16.324 A 14.57 14.57 0 0 0 255.833 17.446 Q 254.421 18.569 253.728 19.824 Q 252.736 21.618 252.949 24.126 A 11.441 11.441 0 0 0 252.978 24.424 Q 252.883 25.373 253.104 26.368 Z M 337.104 26.368 A 7.021 7.021 0 0 0 337.128 26.474 Q 337.378 27.524 337.378 28.624 Q 337.378 29.589 337.681 30.03 A 0.86 0.86 0 0 0 337.928 30.274 Q 338.406 30.578 339.526 30.089 A 7.483 7.483 0 0 0 339.878 29.924 Q 344.078 28.024 348.528 26.874 Q 352.978 25.724 357.578 25.124 A 17.66 17.66 0 0 1 359.336 25.035 A 16.402 16.402 0 0 1 361.478 25.174 A 6.341 6.341 0 0 1 364.393 26.358 A 7.973 7.973 0 0 1 364.978 26.824 A 7.24 7.24 0 0 1 366.104 28.142 A 5.554 5.554 0 0 1 366.878 29.924 Q 367.278 31.624 367.378 33.424 A 41.605 41.605 0 0 0 367.484 34.495 Q 367.606 35.568 367.756 36.277 A 7.48 7.48 0 0 0 367.878 36.774 Q 368.178 37.824 369.328 38.324 Q 370.284 38.739 372.105 39.155 A 41.434 41.434 0 0 0 372.878 39.324 Q 373.578 39.424 374.228 39.524 A 10.56 10.56 0 0 1 375.188 39.719 A 12.312 12.312 0 0 1 375.578 39.824 Q 378.378 40.224 378.378 37.624 A 4.884 4.884 0 0 0 378.289 36.726 Q 378.207 36.289 378.05 35.806 A 9.834 9.834 0 0 0 377.878 35.324 Q 377.078 33.224 376.528 31.074 Q 375.978 28.924 375.478 26.724 Q 374.778 23.624 373.828 20.624 Q 372.878 17.624 371.178 14.824 A 9.965 9.965 0 0 0 369.83 12.862 A 7.044 7.044 0 0 0 366.928 10.874 Q 364.278 9.924 360.978 10.424 Q 355.878 11.224 350.928 12.474 Q 345.978 13.724 341.478 16.324 A 14.57 14.57 0 0 0 339.833 17.446 Q 338.421 18.569 337.728 19.824 Q 336.736 21.618 336.949 24.126 A 11.441 11.441 0 0 0 336.978 24.424 Q 336.883 25.373 337.104 26.368 Z M 457.878 31.324 A 25.663 25.663 0 0 0 459.674 25.552 Q 460.029 23.589 460.029 21.641 A 21.346 21.346 0 0 0 460.028 21.424 Q 459.978 16.524 458.778 11.524 Q 457.817 7.486 452.696 6.221 A 15.675 15.675 0 0 0 452.278 6.124 Q 446.978 5.024 441.628 4.274 A 54.807 54.807 0 0 0 434.011 3.738 A 53.652 53.652 0 0 0 430.978 3.824 A 27.733 27.733 0 0 0 427.339 4.242 Q 420.033 5.628 420.278 11.024 A 4.071 4.071 0 0 0 420.311 11.566 Q 420.392 12.161 420.666 12.475 A 0.984 0.984 0 0 0 420.828 12.624 A 1.267 1.267 0 0 0 421.169 12.792 Q 421.778 12.999 422.978 12.924 Q 426.778 12.424 430.728 12.824 Q 434.678 13.224 438.578 14.024 A 62.014 62.014 0 0 1 443.312 15.105 Q 448.273 16.461 451.228 18.374 A 9.726 9.726 0 0 1 455.718 25.062 A 12.546 12.546 0 0 1 455.878 26.324 Q 455.978 27.324 456.278 28.524 A 4.596 4.596 0 0 0 456.602 29.396 Q 456.998 30.217 457.77 31.189 A 15.758 15.758 0 0 0 457.878 31.324 Z M 249.721 68.411 A 35.337 35.337 0 0 0 249.978 72.624 A 43.239 43.239 0 0 1 249.819 72.149 A 39.15 39.15 0 0 1 248.178 65.074 A 23.685 23.685 0 0 1 247.97 61.94 A 24.332 24.332 0 0 1 248.378 57.524 Q 248.978 53.424 249.028 49.474 Q 249.078 45.524 249.178 41.524 Q 249.178 39.624 249.378 37.724 Q 249.578 35.824 249.978 34.124 Q 251.678 41.224 251.028 48.424 Q 250.378 55.624 249.878 62.924 Q 249.778 65.324 249.728 67.724 A 33.019 33.019 0 0 0 249.721 68.411 Z M 333.721 68.411 A 35.337 35.337 0 0 0 333.978 72.624 A 43.239 43.239 0 0 1 333.819 72.149 A 39.15 39.15 0 0 1 332.178 65.074 A 23.685 23.685 0 0 1 331.97 61.94 A 24.332 24.332 0 0 1 332.378 57.524 Q 332.978 53.424 333.028 49.474 Q 333.078 45.524 333.178 41.524 Q 333.178 39.624 333.378 37.724 Q 333.578 35.824 333.978 34.124 Q 335.678 41.224 335.028 48.424 Q 334.378 55.624 333.878 62.924 Q 333.778 65.324 333.728 67.724 A 33.019 33.019 0 0 0 333.721 68.411 Z M 294.578 66.724 L 294.578 67.724 Q 294.578 68.224 294.678 68.724 Q 294.678 69.124 294.628 69.674 Q 294.58 70.205 295.325 70.223 A 2.204 2.204 0 0 0 295.378 70.224 A 2.033 2.033 0 0 0 295.849 70.172 Q 296.213 70.085 296.46 69.852 A 1.264 1.264 0 0 0 296.578 69.724 Q 296.978 69.224 296.778 68.524 A 6.915 6.915 0 0 1 296.622 67.506 Q 296.503 65.909 297.228 64.574 Q 298.178 62.824 299.178 61.024 Q 300.278 59.124 301.528 57.274 Q 302.778 55.424 303.178 53.224 A 11.332 11.332 0 0 0 303.305 52.132 Q 303.608 47.488 299.478 45.424 A 15.924 15.924 0 0 0 293.11 43.557 A 15.519 15.519 0 0 0 292.428 43.524 Q 288.778 43.424 284.978 44.124 Q 284.678 44.224 284.328 44.324 A 0.599 0.599 0 0 0 283.93 44.671 A 0.913 0.913 0 0 0 283.878 44.824 A 0.879 0.879 0 0 0 283.859 44.92 Q 283.816 45.249 284.078 45.424 Q 284.376 45.622 284.772 45.82 A 9.077 9.077 0 0 0 284.778 45.824 Q 288.877 47.407 290.807 50.336 A 9.631 9.631 0 0 1 291.078 50.774 Q 292.978 54.024 294.278 57.724 A 10.875 10.875 0 0 1 294.952 61.464 A 10.66 10.66 0 0 1 294.928 62.174 Q 294.778 64.424 294.578 66.724 Z M 378.578 66.724 L 378.578 67.724 Q 378.578 68.224 378.678 68.724 Q 378.678 69.124 378.628 69.674 Q 378.58 70.205 379.325 70.223 A 2.204 2.204 0 0 0 379.378 70.224 A 2.033 2.033 0 0 0 379.849 70.172 Q 380.213 70.085 380.46 69.852 A 1.264 1.264 0 0 0 380.578 69.724 Q 380.978 69.224 380.778 68.524 A 6.915 6.915 0 0 1 380.622 67.506 Q 380.503 65.909 381.228 64.574 Q 382.178 62.824 383.178 61.024 Q 384.278 59.124 385.528 57.274 Q 386.778 55.424 387.178 53.224 A 11.332 11.332 0 0 0 387.305 52.132 Q 387.608 47.488 383.478 45.424 A 15.924 15.924 0 0 0 377.11 43.557 A 15.519 15.519 0 0 0 376.428 43.524 Q 372.778 43.424 368.978 44.124 Q 368.678 44.224 368.328 44.324 A 0.599 0.599 0 0 0 367.93 44.671 A 0.913 0.913 0 0 0 367.878 44.824 A 0.879 0.879 0 0 0 367.859 44.92 Q 367.816 45.249 368.078 45.424 Q 368.376 45.622 368.772 45.82 A 9.077 9.077 0 0 0 368.778 45.824 Q 372.877 47.407 374.807 50.336 A 9.631 9.631 0 0 1 375.078 50.774 Q 376.978 54.024 378.278 57.724 A 10.875 10.875 0 0 1 378.952 61.464 A 10.66 10.66 0 0 1 378.928 62.174 Q 378.778 64.424 378.578 66.724 Z M 428.278 49.624 Q 429.378 44.524 433.128 42.724 A 10.897 10.897 0 0 1 435.664 41.893 Q 438.9 41.23 443.602 41.912 A 40.424 40.424 0 0 1 443.678 41.924 Q 445.978 42.224 448.228 42.474 Q 450.478 42.724 452.678 43.024 Q 454.418 43.175 454.899 42.582 A 0.829 0.829 0 0 0 455.078 42.124 A 1.426 1.426 0 0 0 455.088 41.994 Q 455.107 41.443 454.65 41.156 A 1.498 1.498 0 0 0 454.378 41.024 Q 453.578 40.724 452.778 40.524 Q 447.478 39.224 442.128 38.274 Q 436.778 37.324 431.478 36.824 A 9.765 9.765 0 0 0 431.005 36.795 Q 427.844 36.686 427.378 38.924 A 14.224 14.224 0 0 0 426.955 42.387 A 15.233 15.233 0 0 0 427.028 43.874 A 23.09 23.09 0 0 0 427.39 46.229 Q 427.634 47.425 428.012 48.736 A 40.825 40.825 0 0 0 428.278 49.624 Z M 45.978 16.624 A 3.862 3.862 0 0 0 45.732 16.397 Q 45.106 15.871 44.728 16.124 A 1.66 1.66 0 0 0 44.351 16.478 Q 44.214 16.65 44.096 16.874 A 3.502 3.502 0 0 0 43.978 17.124 Q 42.978 19.524 41.328 21.424 Q 39.678 23.324 37.578 24.824 A 1.509 1.509 0 0 0 37.168 25.077 A 1.186 1.186 0 0 0 36.778 25.824 Q 36.378 28.324 36.178 30.924 A 45.183 45.183 0 0 0 36.045 34.39 A 45.096 45.096 0 0 0 36.078 36.124 A 2.94 2.94 0 0 0 36.227 36.822 Q 36.64 37.976 38.056 37.85 A 3.724 3.724 0 0 0 38.278 37.824 Q 41.778 37.324 45.328 36.774 Q 48.878 36.224 52.278 35.524 A 4.591 4.591 0 0 0 53.325 35.237 Q 55.231 34.437 54.686 31.959 A 6.38 6.38 0 0 0 54.678 31.924 A 21.171 21.171 0 0 0 54.203 30.107 Q 53.931 29.238 53.603 28.501 A 11.687 11.687 0 0 0 53.378 28.024 Q 51.978 24.924 50.528 21.874 Q 49.078 18.824 45.978 16.624 Z M 123.978 16.624 A 3.862 3.862 0 0 0 123.732 16.397 Q 123.106 15.871 122.728 16.124 A 1.66 1.66 0 0 0 122.351 16.478 Q 122.214 16.65 122.096 16.874 A 3.502 3.502 0 0 0 121.978 17.124 Q 120.978 19.524 119.328 21.424 Q 117.678 23.324 115.578 24.824 A 1.509 1.509 0 0 0 115.168 25.077 A 1.186 1.186 0 0 0 114.778 25.824 Q 114.378 28.324 114.178 30.924 A 45.183 45.183 0 0 0 114.045 34.39 A 45.096 45.096 0 0 0 114.078 36.124 A 2.94 2.94 0 0 0 114.227 36.822 Q 114.64 37.976 116.056 37.85 A 3.724 3.724 0 0 0 116.278 37.824 Q 119.778 37.324 123.328 36.774 Q 126.878 36.224 130.278 35.524 A 4.591 4.591 0 0 0 131.325 35.237 Q 133.231 34.437 132.686 31.959 A 6.38 6.38 0 0 0 132.678 31.924 A 21.171 21.171 0 0 0 132.203 30.107 Q 131.931 29.238 131.603 28.501 A 11.687 11.687 0 0 0 131.378 28.024 Q 129.978 24.924 128.528 21.874 Q 127.078 18.824 123.978 16.624 Z M 461.678 10.224 Q 464.078 17.924 462.728 24.974 Q 461.378 32.024 458.778 38.824 A 7.142 7.142 0 0 1 460.878 37.521 A 8.196 8.196 0 0 1 461.128 37.424 A 10.003 10.003 0 0 0 462.773 36.628 A 12.69 12.69 0 0 0 463.828 35.924 A 4.848 4.848 0 0 0 464.928 34.761 Q 465.518 33.904 465.928 32.674 A 9.545 9.545 0 0 0 466.265 31.294 Q 466.585 29.453 466.504 26.705 A 42.939 42.939 0 0 0 466.478 26.024 A 28.528 28.528 0 0 0 465.798 21.262 A 35.278 35.278 0 0 0 464.978 18.274 Q 463.678 14.224 461.678 10.224 Z M 179.078 14.824 A 49.812 49.812 0 0 0 179.223 16.39 A 41.753 41.753 0 0 0 179.328 17.274 A 0.925 0.925 0 0 0 179.543 17.781 Q 179.971 18.264 181.204 18.072 A 6.429 6.429 0 0 0 181.478 18.024 Q 185.478 17.224 189.528 16.424 Q 193.578 15.624 197.378 13.924 A 7.157 7.157 0 0 0 198.17 13.467 Q 198.572 13.196 198.867 12.901 A 3.124 3.124 0 0 0 199.328 12.324 A 1.939 1.939 0 0 0 199.582 11.622 Q 199.706 10.874 199.378 9.824 A 19.477 19.477 0 0 1 198.938 7.405 A 21.293 21.293 0 0 1 198.928 7.324 Q 198.778 6.024 198.678 4.724 A 3.483 3.483 0 0 0 198.558 3.912 Q 198.11 2.336 196.034 2.713 A 5.559 5.559 0 0 0 195.978 2.724 Q 193.578 3.124 191.128 3.324 Q 188.678 3.524 186.378 4.324 Q 183.478 5.224 182.078 5.574 Q 180.678 5.924 180.178 6.474 A 1.684 1.684 0 0 0 179.893 6.926 Q 179.645 7.483 179.578 8.424 Q 179.482 9.771 179.2 12.602 A 445.19 445.19 0 0 1 179.178 12.824 Q 179.078 13.324 179.078 13.824 L 179.078 14.824 Z M 200.078 50.924 Q 200.178 58.424 200.628 65.874 Q 201.078 73.324 202.378 80.724 A 3.956 3.956 0 0 0 202.609 80.717 Q 202.83 80.704 202.969 80.664 A 0.63 0.63 0 0 0 203.078 80.624 Q 202.378 73.224 201.628 65.774 Q 200.878 58.324 200.078 50.924 Z M 445.678 71.624 A 14.218 14.218 0 0 0 447.123 71.32 Q 447.831 71.129 448.406 70.878 A 5.652 5.652 0 0 0 449.478 70.274 A 11.056 11.056 0 0 0 450.435 69.493 Q 450.906 69.061 451.257 68.619 A 6.061 6.061 0 0 0 451.478 68.324 Q 453.078 65.824 454.828 63.524 Q 456.578 61.224 459.178 59.424 A 15.333 15.333 0 0 1 462.025 57.891 Q 463.399 57.319 465.018 56.906 A 27.214 27.214 0 0 1 465.778 56.724 A 1.901 1.901 0 0 0 466.401 56.51 A 1.725 1.725 0 0 0 466.778 56.224 A 0.66 0.66 0 0 0 466.896 56.068 Q 467.08 55.722 466.699 55.249 A 2.102 2.102 0 0 0 466.678 55.224 A 2.959 2.959 0 0 0 466.271 54.776 Q 465.833 54.391 465.328 54.324 Q 464.578 54.224 463.778 54.324 A 15.617 15.617 0 0 0 461.812 54.691 Q 460.791 54.955 459.936 55.35 A 9.182 9.182 0 0 0 459.678 55.474 Q 457.978 56.324 456.578 57.624 A 35.225 35.225 0 0 0 452.097 62.527 A 31.308 31.308 0 0 0 450.878 64.274 Q 448.578 67.824 445.678 71.624 Z M 192.978 30.024 Q 192.878 32.124 192.678 34.324 L 192.278 38.724 Q 192.01 41.495 189.663 42.029 A 4.928 4.928 0 0 1 189.078 42.124 Q 187.378 42.224 185.628 42.574 Q 183.878 42.924 182.178 43.224 A 5.053 5.053 0 0 1 181.9 43.256 Q 181.152 43.321 180.737 43.103 A 0.904 0.904 0 0 1 180.378 42.774 Q 180.003 42.164 180.067 41.159 A 5.118 5.118 0 0 1 180.078 41.024 Q 180.378 39.024 181.128 37.074 A 37.291 37.291 0 0 0 182.249 33.699 A 34.072 34.072 0 0 0 182.378 33.224 Q 182.878 31.624 183.428 30.124 Q 183.978 28.624 184.578 27.124 A 12.381 12.381 0 0 1 184.799 26.607 Q 184.918 26.346 185.059 26.062 A 19.92 19.92 0 0 1 185.078 26.024 A 4.33 4.33 0 0 1 185.414 25.458 A 3.343 3.343 0 0 1 185.778 25.024 A 6.182 6.182 0 0 1 187.174 24.004 Q 188.831 23.137 190.778 23.624 A 2.341 2.341 0 0 1 191.372 23.79 Q 192.047 24.089 192.202 24.818 A 1.986 1.986 0 0 1 192.228 24.974 Q 192.378 26.124 192.578 27.224 Q 192.678 27.924 192.778 28.574 Q 192.878 29.224 192.978 30.024 Z M 423.078 69.224 A 19.09 19.09 0 0 0 423.601 64.811 A 18.871 18.871 0 0 0 423.328 61.624 A 47.946 47.946 0 0 0 421.655 54.897 A 53.392 53.392 0 0 0 421.328 53.924 Q 419.978 50.024 418.778 46.224 Q 418.678 50.024 418.678 53.824 Q 418.678 57.624 419.628 61.474 A 23.719 23.719 0 0 0 421.406 66.275 A 30.242 30.242 0 0 0 423.078 69.224 Z M 460.078 82.824 L 461.278 82.824 Q 462.678 78.124 462.328 73.024 A 94.19 94.19 0 0 1 462.105 66.573 A 91.304 91.304 0 0 1 462.178 62.924 A 1.713 1.713 0 0 0 462.06 62.283 A 1.623 1.623 0 0 0 461.928 62.024 Q 461.689 61.642 460.949 61.624 A 3.053 3.053 0 0 0 460.878 61.624 A 3.8 3.8 0 0 0 460.196 61.679 Q 459.032 61.892 458.98 62.925 A 1.957 1.957 0 0 0 458.978 63.024 Q 458.978 64.024 459.078 64.974 Q 459.178 65.924 459.278 67.024 Q 459.478 70.924 459.678 74.874 Q 459.878 78.824 460.078 82.824 Z M 191.021 27.264 A 7.413 7.413 0 0 0 191.278 29.224 Q 191.178 31.424 190.928 33.624 Q 190.678 35.824 190.578 38.124 A 6.017 6.017 0 0 1 190.571 38.205 Q 190.403 40.118 189.098 40.687 A 3.114 3.114 0 0 1 187.978 40.924 Q 186.478 41.024 184.778 41.624 A 5.299 5.299 0 0 1 184.566 41.693 Q 183.933 41.887 183.418 41.86 A 1.826 1.826 0 0 1 182.178 41.324 A 1.638 1.638 0 0 1 181.687 40.119 Q 181.687 39.728 181.834 39.271 A 4.616 4.616 0 0 1 182.028 38.774 A 75.543 75.543 0 0 0 182.234 38.316 Q 182.536 37.641 182.793 37.028 A 43.547 43.547 0 0 0 183.278 35.824 Q 183.978 33.824 184.628 31.974 Q 185.278 30.124 185.978 28.224 Q 186.478 27.024 187.278 25.924 Q 187.969 24.974 189.255 25.217 A 3.75 3.75 0 0 1 189.678 25.324 A 3.596 3.596 0 0 1 189.699 25.33 Q 191.03 25.719 191.03 26.842 A 1.965 1.965 0 0 1 191.028 26.924 A 8.186 8.186 0 0 0 191.021 27.264 Z M 288.078 13.824 Q 290.178 16.724 291.078 20.024 Q 291.978 23.324 292.678 26.674 Q 293.378 30.024 294.778 33.124 A 23.647 23.647 0 0 0 295.079 29.866 Q 295.084 29.638 295.084 29.412 A 19.373 19.373 0 0 0 293.928 22.724 A 23.102 23.102 0 0 0 290.212 16.202 A 28.731 28.731 0 0 0 288.078 13.824 Z M 372.078 13.824 Q 374.178 16.724 375.078 20.024 Q 375.978 23.324 376.678 26.674 Q 377.378 30.024 378.778 33.124 A 23.647 23.647 0 0 0 379.079 29.866 Q 379.084 29.638 379.084 29.412 A 19.373 19.373 0 0 0 377.928 22.724 A 23.102 23.102 0 0 0 374.212 16.202 A 28.731 28.731 0 0 0 372.078 13.824 Z M 183.178 66.224 Q 182.178 69.424 181.928 72.824 Q 181.678 76.224 181.078 79.524 L 180.678 82.124 Q 180.478 83.424 180.278 84.824 A 3.623 3.623 0 0 0 180.317 85.343 A 4.498 4.498 0 0 0 180.378 85.674 A 0.638 0.638 0 0 0 180.759 86.13 Q 180.874 86.183 181.022 86.213 A 1.645 1.645 0 0 0 181.078 86.224 Q 181.574 86.323 181.824 85.978 A 0.799 0.799 0 0 0 181.828 85.974 Q 182.078 85.624 182.178 85.224 Q 182.278 84.724 182.378 84.274 A 4.269 4.269 0 0 0 182.475 83.509 A 4.864 4.864 0 0 0 182.478 83.324 Q 182.678 79.124 182.878 74.824 Q 183.078 70.524 183.178 66.224 Z M 254.778 82.724 A 12.763 12.763 0 0 0 257.973 86.164 A 12.069 12.069 0 0 0 259.328 87.024 A 11.254 11.254 0 0 0 262.286 88.153 Q 263.341 88.387 264.411 88.387 A 9.842 9.842 0 0 0 264.928 88.374 Q 267.778 88.224 269.678 86.224 A 44.503 44.503 0 0 1 262.442 85.465 A 41.091 41.091 0 0 1 261.978 85.374 Q 258.278 84.624 254.778 82.724 Z M 338.778 82.724 A 12.763 12.763 0 0 0 341.973 86.164 A 12.069 12.069 0 0 0 343.328 87.024 A 11.254 11.254 0 0 0 346.286 88.153 Q 347.341 88.387 348.411 88.387 A 9.842 9.842 0 0 0 348.928 88.374 Q 351.778 88.224 353.678 86.224 A 44.503 44.503 0 0 1 346.442 85.465 A 41.091 41.091 0 0 1 345.978 85.374 Q 342.278 84.624 338.778 82.724 Z" vector-effect="non-scaling-stroke"/></g></svg>
